<svg width="30" height="30" viewBox="0 0 30 30" fill="none" xmlns="http://www.w3.org/2000/svg">
<path fill-rule="evenodd" clip-rule="evenodd" d="M28 6.13799C26.75 6.74932 25.525 6.9976 24.25 7.37313C22.8487 5.79489 20.7712 5.70756 18.775 6.45363C16.7787 7.19971 15.4712 9.02374 15.5 11.116V12.3636C11.4438 12.4672 7.83125 10.6232 5.5 7.37313C5.5 7.37313 0.2725 16.6467 10.5 21.097C8.16 22.6528 5.82625 23.702 3 23.5922C7.135 25.8417 11.6412 26.6152 15.5425 25.4849C20.0175 24.1874 23.695 20.84 25.1063 15.8258C25.5272 14.3008 25.7363 12.7253 25.7275 11.1435C25.725 10.8328 27.615 7.68504 28 6.13674V6.13799Z" fill="#4C96FB"/>
</svg>
