<svg width="94" height="94" viewBox="0 0 94 94" fill="none" xmlns="http://www.w3.org/2000/svg">
<path d="M19.5833 24.4792C17.961 24.4792 16.6458 25.7943 16.6458 27.4167C16.6458 29.039 17.961 30.3542 19.5833 30.3542V24.4792ZM47 30.3542C48.6223 30.3542 49.9375 29.039 49.9375 27.4167C49.9375 25.7943 48.6223 24.4792 47 24.4792V30.3542ZM42.1041 19.5833C42.1041 17.961 40.789 16.6458 39.1666 16.6458C37.5443 16.6458 36.2291 17.961 36.2291 19.5833H42.1041ZM19.5833 55.8125C17.961 55.8125 16.6458 57.1277 16.6458 58.75C16.6458 60.3723 17.961 61.6875 19.5833 61.6875V55.8125ZM26.4375 43.0881C26.4401 41.4657 25.127 40.1485 23.5047 40.1458C21.8824 40.1432 20.5651 41.4563 20.5625 43.0786L26.4375 43.0881ZM49.6697 61.6866C51.2915 61.7264 52.6385 60.4438 52.6783 58.822C52.718 57.2001 51.4355 55.8531 49.8136 55.8134L49.6697 61.6866ZM19.5833 30.3542H47V24.4792H19.5833V30.3542ZM36.2291 19.5833V27.4167H42.1041V19.5833H36.2291ZM36.2291 27.4167C36.2291 35.6067 34.1485 42.8819 30.9398 48.0158C27.7053 53.1911 23.6128 55.8125 19.5833 55.8125V61.6875C26.3694 61.6875 32.0686 57.2947 35.9218 51.1296C39.8009 44.923 42.1041 36.5316 42.1041 27.4167H36.2291ZM20.5625 43.0786C20.5534 48.7438 24.434 53.3659 29.6046 56.4528C34.8448 59.5813 41.9242 61.4968 49.6697 61.6866L49.8136 55.8134C42.8781 55.6434 36.8298 53.924 32.6161 51.4084C28.3327 48.8511 26.4331 45.8198 26.4375 43.0881L20.5625 43.0786Z" fill="#AABEFF"/>
<path d="M40.3991 73.2236C39.7402 74.7061 40.4078 76.4421 41.8903 77.101C43.3729 77.7599 45.1088 77.0922 45.7677 75.6097L40.3991 73.2236ZM58.75 39.1667L61.4344 37.9736C60.9629 36.9128 59.9109 36.2292 58.75 36.2292C57.5892 36.2292 56.5372 36.9128 56.0657 37.9736L58.75 39.1667ZM71.7324 75.6097C72.3913 77.0922 74.1272 77.7599 75.6097 77.101C77.0922 76.4421 77.7599 74.7061 77.101 73.2236L71.7324 75.6097ZM70.8917 69.5208C72.514 69.5208 73.8292 68.2057 73.8292 66.5833C73.8292 64.961 72.514 63.6458 70.8917 63.6458V69.5208ZM46.6084 63.6458C44.986 63.6458 43.6709 64.961 43.6709 66.5833C43.6709 68.2057 44.986 69.5208 46.6084 69.5208V63.6458ZM45.7677 75.6097L61.4344 40.3597L56.0657 37.9736L40.3991 73.2236L45.7677 75.6097ZM56.0657 40.3597L71.7324 75.6097L77.101 73.2236L61.4344 37.9736L56.0657 40.3597ZM70.8917 63.6458H46.6084V69.5208H70.8917V63.6458Z" fill="#AABEFF"/>
</svg>
