<svg width="26" height="26" viewBox="0 0 26 26" fill="none" xmlns="http://www.w3.org/2000/svg">
<path d="M7.58333 11.9166V20.5833C7.58333 21.1816 7.09831 21.6666 6.5 21.6666H4.33333C3.73502 21.6666 3.25 21.1816 3.25 20.5833V13C3.25 12.4017 3.73502 11.9166 4.33333 11.9166H7.58333C9.97657 11.9166 11.9167 9.97655 11.9167 7.58331V6.49998C11.9167 5.30336 12.8867 4.33331 14.0833 4.33331C15.28 4.33331 16.25 5.30336 16.25 6.49998V11.9166H19.5C20.6966 11.9166 21.6667 12.8867 21.6667 14.0833L20.5833 19.5C20.2633 20.8653 19.3799 21.7486 18.4167 21.6666H10.8333C9.03841 21.6666 7.58333 20.2116 7.58333 18.4166" stroke="#100E21" stroke-width="1.625" stroke-linecap="round" stroke-linejoin="round"/>
</svg>
