<svg width="24" height="24" viewBox="0 0 24 24" fill="none" xmlns="http://www.w3.org/2000/svg">
<path d="M20.0277 14.1049C20.322 13.8134 20.3243 13.3385 20.0328 13.0442C19.7414 12.7499 19.2665 12.7477 18.9722 13.0391L20.0277 14.1049ZM12 21L11.4722 21.5329C11.7645 21.8224 12.2354 21.8224 12.5277 21.5329L12 21ZM5.02772 13.0391C4.73342 12.7477 4.25855 12.7499 3.96707 13.0442C3.6756 13.3385 3.67789 13.8134 3.97219 14.1049L5.02772 13.0391ZM3.9769 14.1095C4.27376 14.3984 4.74859 14.3919 5.03747 14.0951C5.32634 13.7982 5.31986 13.3234 5.023 13.0345L3.9769 14.1095ZM12 7.00601L11.398 7.4534C11.5391 7.6432 11.7614 7.75535 11.9979 7.75601C12.2343 7.75667 12.4573 7.64575 12.5994 7.45674L12 7.00601ZM18.9744 13.0429C18.6789 13.3332 18.6746 13.8081 18.9649 14.1036C19.2551 14.3991 19.73 14.4033 20.0255 14.1131L18.9744 13.0429ZM18.9722 13.0391L11.4722 20.4671L12.5277 21.5329L20.0277 14.1049L18.9722 13.0391ZM12.5277 20.4671L5.02772 13.0391L3.97219 14.1049L11.4722 21.5329L12.5277 20.4671ZM5.023 13.0345C3.87661 11.9189 3.45367 10.2542 3.92861 8.72673L2.49626 8.28136C1.85369 10.3479 2.4259 12.6002 3.9769 14.1095L5.023 13.0345ZM3.92861 8.72673C4.40355 7.19927 5.69591 6.06785 7.27275 5.79904L7.02068 4.32038C4.8873 4.68406 3.13882 6.2148 2.49626 8.28136L3.92861 8.72673ZM7.27275 5.79904C8.84959 5.53024 10.4438 6.16957 11.398 7.4534L12.6019 6.55862C11.3109 4.82167 9.15405 3.95669 7.02068 4.32038L7.27275 5.79904ZM12.5994 7.45674C13.5576 6.18241 15.1484 5.55156 16.7195 5.82289L16.9748 4.34477C14.8492 3.97768 12.6969 4.83118 11.4005 6.55528L12.5994 7.45674ZM16.7195 5.82289C18.2906 6.09421 19.5778 7.22205 20.053 8.74394L21.4848 8.29678C20.8418 6.23776 19.1004 4.71185 16.9748 4.34477L16.7195 5.82289ZM20.053 8.74394C20.5283 10.2658 20.1119 11.9257 18.9744 13.0429L20.0255 14.1131C21.5644 12.6015 22.1279 10.3558 21.4848 8.29678L20.053 8.74394Z" fill="#676B7C"/>
</svg>
